<svg xmlns="http://www.w3.org/2000/svg" xmlns:xlink="http://www.w3.org/1999/xlink"><symbol fill="none" id="sprite-adv_delivery" viewBox="0 0 32 19"><g clip-path="url(#a)"><path fill="#8C0014" d="M11.566 13.53h9.67V2.015H3.782V13.53h1.474a3.75 3.75 0 0 1 3.155-1.727c1.3 0 2.475.67 3.155 1.727m11.416-5.038v5.027a4.34 4.34 0 0 1 3.49-1.768 4.34 4.34 0 0 1 3.492 1.768v-2.867h-2.618V8.924h1.249q-.273-.207-.594-.432zm0-1.727h3.862l-.838-1.709a.29.29 0 0 0-.262-.162h-2.762zm5.818 10.22H32v1.727H15.127v-1.727h.1v1.727h-.1v-1.727h9.018a2.85 2.85 0 0 1-.581-1.727H11.346c0 .623-.204 1.229-.582 1.727H12.8v1.727H2.91v-1.727h.057v1.727H2.91v-1.727h3.2a2.85 2.85 0 0 1-.582-1.727h-3.49V.288h20.945v2.879h2.762c.383 0 .757.106 1.08.307.325.2.585.488.752.828l1.328 2.706c1.872 1.296 2.805 2.278 2.805 3.25v5h-2.327c0 .623-.204 1.229-.582 1.727m-20.364-.576c.309 0 .605-.121.823-.337a1.145 1.145 0 0 0 0-1.629 1.17 1.17 0 0 0-1.645 0 1.145 1.145 0 0 0 0 1.629c.218.216.514.337.822.337m18.037 0c.308 0 .604-.121.823-.337a1.145 1.145 0 0 0 0-1.629 1.17 1.17 0 0 0-1.646 0 1.145 1.145 0 0 0 0 1.629c.218.216.514.337.823.337M3.782 6.621h1.454V4.894H3.782zm0 2.591H6.4V7.485H3.782zm-2.037 7.773v1.727H0v-1.727h.01v1.727H0v-1.727zM15.236 4.03l-1.623 2.218-1.63-2.218H8.145v.935h.67V8.78h-.67v.934h2.43V8.78h-.678V6.308l2.507 3.406 2.497-3.406V8.78h-.678v.934h4.395V8.78h-.678V4.965h.678V4.03z"/></g><defs><clipPath id="a"><path fill="#fff" d="M0 0h32v19H0z"/></clipPath></defs></symbol><use xlink:href="#sprite-adv_delivery" width="32" height="19" y="0"/><view id="sprite-adv_delivery-view" viewBox="0 0 32 19"/><symbol fill="none" id="sprite-adv_diagram" viewBox="0 0 28 29"><path stroke="#8C0014" stroke-linecap="round" stroke-linejoin="round" stroke-miterlimit="22.926" stroke-width="2" d="m21.561 24.377-8.475-8.59M13.086 15.787l-7.943 9.085a12.07 12.07 0 0 1-4.125-9.085c0-6.665 5.403-12.067 12.067-12.067zM13.086 15.787l11.899-2.01q.168.998.168 2.01c0 6.665-5.403 12.067-12.067 12.067-2.904 0-5.71-1.047-7.905-2.949zM16.37 11.78V1.018c5.252 0 9.737 3.791 10.612 8.97z"/></symbol><use xlink:href="#sprite-adv_diagram" width="28" height="29" y="19"/><view id="sprite-adv_diagram-view" viewBox="0 19 28 29"/><symbol fill="none" id="sprite-adv_quality" viewBox="0 0 21 32"><path fill="#8C0014" d="m16.975 7.806.304-1.882-1.837-.437-.433-1.859-1.864.307-1.105-1.552-1.61 1.006-1.607-1.006-1.105 1.553-1.865-.307-.433 1.86-1.836.436.303 1.882-1.53 1.113.993 1.62-.993 1.62 1.53 1.111-.303 1.883 1.836.436.433 1.86 1.865-.307 1.104 1.552 1.609-1.007 1.608 1.007 1.106-1.552 1.864.308.433-1.86 1.837-.437-.304-1.883 1.53-1.112-.992-1.62.992-1.62zm-5.518 12.615 2.59 7.604 1.117-1.701 2.486.632-2.856-7.739-.863-.141-1.425 2.002zm5.045-1.647 3.962 10.732-4.526-1.15L13.548 32l-3.187-9.35L7.175 32l-2.39-3.643-4.527 1.149L4.306 18.54l-.342-1.469-2.376-.563.393-2.434L0 12.635l1.284-2.097L0 8.442l1.981-1.44-.393-2.433 2.376-.564.558-2.4L6.932 2 8.355 0l2.076 1.297L12.506 0l1.425 2.001 2.409-.396.558 2.4 2.376.564-.393 2.433 1.982 1.44-1.285 2.096 1.285 2.097-1.98 1.44.392 2.434-2.376.564zm-7.275 1.759-.871.545-1.425-2.002-1.012.166-2.847 7.714 2.487-.632 1.115 1.7zm1.204-3.879a6.09 6.09 0 0 0 4.339-1.825 6.28 6.28 0 0 0 1.797-4.408 6.28 6.28 0 0 0-1.797-4.408 6.09 6.09 0 0 0-4.34-1.826 6.09 6.09 0 0 0-4.338 1.826 6.28 6.28 0 0 0-1.797 4.408c0 1.653.646 3.239 1.797 4.408a6.09 6.09 0 0 0 4.339 1.825m0-1.78a4.35 4.35 0 0 1-3.1-1.305 4.5 4.5 0 0 1-1.283-3.148c0-1.181.461-2.314 1.283-3.149a4.35 4.35 0 0 1 3.1-1.304c1.162 0 2.277.47 3.099 1.304a4.5 4.5 0 0 1 1.284 3.149c0 1.18-.462 2.313-1.284 3.148a4.35 4.35 0 0 1-3.1 1.304m0-8.015c-.93 0-1.822.375-2.48 1.043a3.6 3.6 0 0 0-1.027 2.519h1.754c0-.472.184-.925.513-1.26a1.74 1.74 0 0 1 1.24-.521z"/></symbol><use xlink:href="#sprite-adv_quality" width="21" height="32" y="48"/><view id="sprite-adv_quality-view" viewBox="0 48 21 32"/><symbol fill="none" id="sprite-adv_service" viewBox="0 0 30 32"><g clip-path="url(#a)"><path fill="#8C0014" d="M28.182 5.486V1.829H13.636v18.285h14.546v-12.8H13.636V5.486zM15.025 21.943h-3.207V0H30v21.943H16.844c-.073 3.951-2.803 5.94-7.753 5.784h-.91v.354c0 1.329-.87 2.124-2.272 2.16H4.091v.915H2.273v-1.6H0v-1.829h2.273v-1.6H0V24.3h2.273v-1.372H4.09v.915h1.842c1.342.035 2.202.79 2.247 2.057h.94c4 .126 5.836-1.134 5.905-3.956M4.09 25.67v2.743h1.794c.44-.01.479-.046.479-.332v-2.079c0-.285-.04-.32-.455-.332zm16.818-6.47a5.44 5.44 0 0 1-3.857-1.607 5.5 5.5 0 0 1-1.598-3.879c0-1.455.575-2.85 1.598-3.879A5.44 5.44 0 0 1 20.91 8.23c1.447 0 2.834.578 3.857 1.606a5.5 5.5 0 0 1 1.598 3.88c0 1.454-.575 2.85-1.598 3.878a5.44 5.44 0 0 1-3.857 1.607m0-1.829c.965 0 1.89-.385 2.571-1.07a3.67 3.67 0 0 0 0-5.173 3.626 3.626 0 0 0-5.142 0 3.67 3.67 0 0 0 0 5.172 3.63 3.63 0 0 0 2.571 1.071m0-.914V14.63a.9.9 0 0 0 .643-.268.92.92 0 0 0 .266-.647h1.818c0 .728-.287 1.425-.798 1.94a2.72 2.72 0 0 1-1.929.803M14.546 4.571V2.743h2.727V4.57zm10.909 0a.9.9 0 0 1-.643-.267.917.917 0 0 1 .642-1.561c.242 0 .473.096.643.268a.917.917 0 0 1-.643 1.56m-2.728 0a.9.9 0 0 1-.643-.267.917.917 0 0 1 0-1.293.907.907 0 0 1 1.552.646.92.92 0 0 1-.266.647.9.9 0 0 1-.643.267"/></g><defs><clipPath id="a"><path fill="#fff" d="M0 0h30v32H0z"/></clipPath></defs></symbol><use xlink:href="#sprite-adv_service" width="30" height="32" y="80"/><view id="sprite-adv_service-view" viewBox="0 80 30 32"/><symbol fill="none" id="sprite-arrow-down" viewBox="0 0 24 24"><path fill="#000" d="M10.976 8.066a.23.23 0 0 0-.067.16v7.496l-4.524-4.524a.226.226 0 0 0-.385.16v3.1c0 .06.024.117.067.159l6.004 6.005a.226.226 0 0 0 .32 0l6.004-6.005a.23.23 0 0 0 .067-.16v-3.1a.226.226 0 0 0-.385-.159l-4.524 4.524V8.226c0-.125-.102-.226-.226-.226h-2.192a.22.22 0 0 0-.16.066"/></symbol><use xlink:href="#sprite-arrow-down" width="24" height="24" y="112"/><view id="sprite-arrow-down-view" viewBox="0 112 24 24"/><symbol fill="none" id="sprite-arrow-link" viewBox="0 0 24 24"><path fill="#000" d="M7.776 18a.23.23 0 0 0 .16-.066l7.421-7.422v6.398a.226.226 0 0 0 .385.16l2.192-2.193a.23.23 0 0 0 .066-.16V6.227A.226.226 0 0 0 17.774 6H9.282a.23.23 0 0 0-.16.066L6.93 8.258a.226.226 0 0 0 .16.385h6.398l-7.422 7.422a.225.225 0 0 0 0 .32l1.55 1.549a.23.23 0 0 0 .16.066"/></symbol><use xlink:href="#sprite-arrow-link" width="24" height="24" y="136"/><view id="sprite-arrow-link-view" viewBox="0 136 24 24"/><symbol fill="none" id="sprite-arrow-nav" viewBox="0 0 24 24"><path stroke="#000" stroke-linecap="round" stroke-linejoin="round" stroke-miterlimit="10" stroke-width="1.5" d="m9.5 18 4.259-4.178a2.554 2.554 0 0 0 0-3.599L9.5 6"/></symbol><use xlink:href="#sprite-arrow-nav" width="24" height="24" y="160"/><view id="sprite-arrow-nav-view" viewBox="0 160 24 24"/><symbol fill="none" id="sprite-bar-2" viewBox="0 0 24 23"><path stroke="#000" stroke-linecap="round" stroke-width="1.5" d="M13 11.75v-5h8v3"/><path stroke="#000" stroke-width="1.5" d="M2 22.75v-22h8v22M24 22H0"/></symbol><use xlink:href="#sprite-bar-2" width="24" height="23" y="184"/><view id="sprite-bar-2-view" viewBox="0 184 24 23"/><symbol fill="none" id="sprite-bar" viewBox="0 0 24 23"><path stroke="currentColor" stroke-width="1.5" d="M13 22.75v-16h8v16M2 22.75v-22h8v22M24 22H0"/></symbol><use xlink:href="#sprite-bar" width="24" height="23" y="207"/><view id="sprite-bar-view" viewBox="0 207 24 23"/><symbol fill="none" id="sprite-burgerMenu" viewBox="0 0 24 24"><path stroke="currentColor" stroke-width="1.5" d="M0 1.95h24M0 11.95h24M0 21.95h24"/></symbol><use xlink:href="#sprite-burgerMenu" width="24" height="24" y="230"/><view id="sprite-burgerMenu-view" viewBox="0 230 24 24"/><symbol fill="none" id="sprite-calendar" viewBox="0 0 20 20"><path fill="#000" d="M17 3h-1V1a1 1 0 0 0-2 0v2H6V1a1 1 0 0 0-2 0v2H3a3 3 0 0 0-3 3v1h20V6a3 3 0 0 0-3-3M0 17a3 3 0 0 0 3 3h14a3 3 0 0 0 3-3V9H0z"/></symbol><use xlink:href="#sprite-calendar" width="20" height="20" y="254"/><view id="sprite-calendar-view" viewBox="0 254 20 20"/><symbol fill="none" id="sprite-cart-2" viewBox="0 0 24 24"><path stroke="currentColor" stroke-linecap="round" stroke-linejoin="round" stroke-miterlimit="10" stroke-width="1.5" d="M.762.762h3.746L6.38 4.508v8.04a3.197 3.197 0 0 0 3.197 3.198h7.265a6.395 6.395 0 0 0 6.395-6.395V4.508m-5.15 14.048a2.341 2.341 0 1 0 0 4.682 2.341 2.341 0 0 0 0-4.682m-8.442 0a2.341 2.341 0 1 0 0 4.682 2.341 2.341 0 0 0 0-4.682"/></symbol><use xlink:href="#sprite-cart-2" width="24" height="24" y="274"/><view id="sprite-cart-2-view" viewBox="0 274 24 24"/><symbol fill="none" id="sprite-cart-3" viewBox="0 0 24 24"><mask id="a" width="25" height="25" x="-1" y="0" maskUnits="userSpaceOnUse" style="mask-type:luminance"><path fill="currentColor" d="M-.189 0H24v24.189H-.189z"/></mask><g mask="url(#a)"><path stroke="currentColor" stroke-linecap="round" stroke-linejoin="round" stroke-miterlimit="10" stroke-width="1.5" d="M.756.945h3.716L6.331 4.66v7.978a3.17 3.17 0 0 0 3.172 3.172h7.208a6.344 6.344 0 0 0 6.344-6.344V4.66m-5.11 13.937a2.323 2.323 0 1 0 0 4.646 2.323 2.323 0 0 0 0-4.646m-8.375 0a2.323 2.323 0 1 0 0 4.646 2.323 2.323 0 0 0 0-4.646"/></g><path fill="currentColor" d="M10.486 1.64c-2.15 2.173-2.139 5.692.035 7.842 2.174 2.151 5.692 2.14 7.843-.035 2.15-2.174 2.14-5.692-.035-7.843-2.174-2.15-5.692-2.139-7.843.035m6.64 2.84L14.11 7.53a.663.663 0 0 1-.935 0l-.117-.117-.351-.35-.982-.97a.663.663 0 0 1 0-.935.663.663 0 0 1 .935 0l.982.97 2.548-2.572a.663.663 0 0 1 .935 0 .65.65 0 0 1 0 .924"/></symbol><use xlink:href="#sprite-cart-3" width="24" height="24" y="298"/><view id="sprite-cart-3-view" viewBox="0 298 24 24"/><symbol fill="none" id="sprite-cart" viewBox="0 0 24 24"><path stroke="currentColor" stroke-linecap="round" stroke-linejoin="round" stroke-miterlimit="10" stroke-width="1.5" d="M6.381 4.508 4.508.762H.762M6.38 4.508h16.857v4.843a6.395 6.395 0 0 1-6.395 6.395H9.578a3.197 3.197 0 0 1-3.197-3.197zm11.706 14.048a2.341 2.341 0 1 0 0 4.682 2.341 2.341 0 0 0 0-4.682m-8.44 0a2.341 2.341 0 1 0-.001 4.682 2.341 2.341 0 0 0 0-4.682"/></symbol><use xlink:href="#sprite-cart" width="24" height="24" y="322"/><view id="sprite-cart-view" viewBox="0 322 24 24"/><symbol fill="none" id="sprite-checked" viewBox="0 0 24 24"><path fill="#000" d="M12 0C5.409 0 0 5.409 0 12s5.409 12 12 12 12-5.409 12-12S18.591 0 12 0m-1.452 17.458-5.255-5.255 1.988-1.988 3.359 3.358 6.742-6.129 1.892 2.08z"/></symbol><use xlink:href="#sprite-checked" width="24" height="24" y="346"/><view id="sprite-checked-view" viewBox="0 346 24 24"/><symbol fill="none" id="sprite-cross" viewBox="0 0 24 24"><path stroke="#000" stroke-width="1.5" d="m3.7 20.164 8.309-8.309m0 0L19.963 3.9m-7.955 7.955L4.055 3.9m7.954 7.955 8.309 8.308"/></symbol><use xlink:href="#sprite-cross" width="24" height="24" y="370"/><view id="sprite-cross-view" viewBox="0 370 24 24"/><symbol fill="none" id="sprite-facebook" viewBox="0 0 24 24"><g clip-path="url(#a)"><path fill="#000" fill-rule="evenodd" d="M12 24c6.627 0 12-5.373 12-12S18.627 0 12 0 0 5.373 0 12s5.373 12 12 12m1.78-19 1.919.003c.166 0 .301.128.301.285v2.138a.294.294 0 0 1-.302.285h-1.292c-.891 0-1.054.33-1.054.976v1.347h2.256c.08 0 .157.03.214.084a.28.28 0 0 1 .088.202v2.301a.294.294 0 0 1-.303.286h-2.255v5.808a.294.294 0 0 1-.302.285h-2.517a.294.294 0 0 1-.302-.285v-5.808h-1.93A.294.294 0 0 1 8 12.62V10.32c0-.158.135-.286.302-.286h1.929V8.445C10.231 6.352 11.624 5 13.78 5" clip-rule="evenodd"/></g><defs><clipPath id="a"><path fill="#fff" d="M0 0h24v24H0z"/></clipPath></defs></symbol><use xlink:href="#sprite-facebook" width="24" height="24" y="394"/><view id="sprite-facebook-view" viewBox="0 394 24 24"/><symbol fill="none" id="sprite-heart-2" viewBox="0 0 24 21"><path stroke="#000" stroke-linecap="round" stroke-linejoin="round" stroke-miterlimit="10" stroke-width="1.5" d="M23.238 6.726c0-3.234-2.14-5.964-5.524-5.964C13.372.762 12 5.524 12 5.524S10.629.762 6.286.762C2.903.762.762 3.492.762 6.726.762 11.2 5.222 14.161 12 19.81"/></symbol><use xlink:href="#sprite-heart-2" width="24" height="21" y="418"/><view id="sprite-heart-2-view" viewBox="0 418 24 21"/><symbol fill="none" id="sprite-heart-3" viewBox="0 0 24 21"><mask id="a" width="25" height="25" x="-1" y="-2" maskUnits="userSpaceOnUse" style="mask-type:luminance"><path fill="#fff" d="M-.188-1.888H24V22.3H-.188z"/></mask><g mask="url(#a)"><path stroke="#000" stroke-linecap="round" stroke-linejoin="round" stroke-miterlimit="10" stroke-width="1.5" d="M23.054 6.673c0-3.209-2.124-5.917-5.48-5.917-4.309 0-5.67 4.724-5.67 4.724S10.545.756 6.237.756C2.88.756.756 3.464.756 6.673c0 4.438 4.425 7.376 11.149 12.98"/></g><path fill="#000" d="M14.518 10.837c-2.15 2.174-2.139 5.692.035 7.843s5.692 2.139 7.843-.035 2.139-5.692-.035-7.843-5.692-2.139-7.843.035m6.639 2.84-3.016 3.051a.663.663 0 0 1-.935 0l-.116-.117-.351-.35-.982-.97a.663.663 0 0 1 0-.936.663.663 0 0 1 .935 0l.982.97 2.548-2.57a.663.663 0 0 1 .935 0 .65.65 0 0 1 0 .922"/></symbol><use xlink:href="#sprite-heart-3" width="24" height="21" y="439"/><view id="sprite-heart-3-view" viewBox="0 439 24 21"/><symbol fill="none" id="sprite-heart" viewBox="0 0 24 21"><path stroke="#fff" stroke-linecap="round" stroke-linejoin="round" stroke-miterlimit="10" stroke-width="1.5" d="M12 5.524S13.371.762 17.714.762c3.383 0 5.524 2.73 5.524 5.964 0 4.473-4.46 7.435-11.238 13.084C5.222 14.16.762 11.2.762 6.726c0-3.234 2.14-5.964 5.524-5.964C10.629.762 12 5.524 12 5.524"/></symbol><use xlink:href="#sprite-heart" width="24" height="21" y="460"/><view id="sprite-heart-view" viewBox="0 460 24 21"/><symbol fill="none" id="sprite-instagram" viewBox="0 0 24 24"><g fill="#000" clip-path="url(#a)"><path d="M14.475 12A2.48 2.48 0 0 0 12 9.525 2.48 2.48 0 0 0 9.525 12 2.48 2.48 0 0 0 12 14.475 2.48 2.48 0 0 0 14.475 12M15.3 7.463a.827.827 0 0 0-.825.824c0 .454.371.825.825.825a.827.827 0 0 0 .825-.825.827.827 0 0 0-.825-.825"/><path fill-rule="evenodd" d="M12 24c6.627 0 12-5.373 12-12S18.627 0 12 0 0 5.373 0 12s5.373 12 12 12M5.4 9.113A3.697 3.697 0 0 1 9.113 5.4h5.775A3.697 3.697 0 0 1 18.6 9.113v5.775a3.697 3.697 0 0 1-3.713 3.712H9.113A3.697 3.697 0 0 1 5.4 14.887z" clip-rule="evenodd"/></g><defs><clipPath id="a"><path fill="#fff" d="M0 0h24v24H0z"/></clipPath></defs></symbol><use xlink:href="#sprite-instagram" width="24" height="24" y="481"/><view id="sprite-instagram-view" viewBox="0 481 24 24"/><symbol id="sprite-my-search" viewBox="0 0 16 16"><path fill="currentColor" d="m11.271 11.978 3.872 3.873a.5.5 0 0 0 .708 0 .5.5 0 0 0 0-.708l-3.565-3.564c2.38-2.747 2.267-6.923-.342-9.532-2.73-2.73-7.17-2.73-9.898 0s-2.728 7.17 0 9.9a6.96 6.96 0 0 0 4.949 2.05.5.5 0 0 0 0-1 5.96 5.96 0 0 1-4.242-1.757 6.01 6.01 0 0 1 0-8.486 6.004 6.004 0 0 1 8.484 0 6.01 6.01 0 0 1 0 8.486.5.5 0 0 0 .034.738"/></symbol><use xlink:href="#sprite-my-search" width="16" height="16" y="505"/><view id="sprite-my-search-view" viewBox="0 505 16 16"/><symbol fill="none" id="sprite-payment_mc" viewBox="0 0 72 32"><path fill="#fff" d="M8.898 19.086a4.6 4.6 0 0 0-1.065-.501 3.8 3.8 0 0 0-1.16-.179 3 3 0 0 0-.727.083c-.2.047-.392.128-.565.24a1.2 1.2 0 0 0-.365.374.94.94 0 0 0-.13.492.77.77 0 0 0 .112.436.9.9 0 0 0 .327.296q.244.135.517.2.342.087.691.135l.548.074q.477.067.94.21c.29.087.567.22.816.396.238.167.436.386.579.64.152.288.227.61.217.936a2.2 2.2 0 0 1-.256 1.072c-.17.31-.406.577-.692.783-.306.22-.65.384-1.013.484a4.4 4.4 0 0 1-1.221.165 6.001 6.001 0 0 1-1.705-.27 5 5 0 0 1-.782-.335 3.5 3.5 0 0 1-.692-.466l.692-1.023q.225.203.491.348c.407.223.848.38 1.304.462q.347.064.7.065.365.004.722-.074.312-.07.587-.23c.157-.094.292-.22.396-.371a.87.87 0 0 0 .147-.5.77.77 0 0 0-.434-.71 4.1 4.1 0 0 0-1.357-.367l-.617-.087a5 5 0 0 1-.87-.204 2.5 2.5 0 0 1-.752-.401 1.9 1.9 0 0 1-.535-.649 2.04 2.04 0 0 1-.217-.94 2.2 2.2 0 0 1 .248-1.059 2.3 2.3 0 0 1 .674-.78c.3-.218.637-.38.995-.479a4.3 4.3 0 0 1 1.218-.165 5 5 0 0 1 1.57.23c.46.15.899.361 1.303.628zm4.326.61a2.6 2.6 0 0 1 1.04.208c.308.134.584.333.808.584.232.264.41.57.526.902.131.373.196.767.191 1.162v.445h-4.034c.029.221.1.436.208.631.094.168.22.316.37.436.144.112.308.196.483.248q.272.08.556.078a2.4 2.4 0 0 0 .817-.152c.273-.103.527-.25.753-.436l.586.85c-.307.27-.666.473-1.056.596a4 4 0 0 1-1.178.17 3 3 0 0 1-1.122-.205 2.55 2.55 0 0 1-1.443-1.48 3.2 3.2 0 0 1-.205-1.176 3.3 3.3 0 0 1 .2-1.163 2.7 2.7 0 0 1 .557-.906c.245-.254.541-.453.87-.584a2.8 2.8 0 0 1 1.073-.213zm-.021 1.058a1.5 1.5 0 0 0-.566.096c-.162.06-.31.153-.434.274a1.5 1.5 0 0 0-.292.435 2 2 0 0 0-.16.54h2.817a1.7 1.7 0 0 0-.435-.988 1.26 1.26 0 0 0-.935-.362zm6.3-1.059c.39-.003.777.07 1.138.218.338.144.636.366.87.65l-.761.81a2.3 2.3 0 0 0-.6-.436 1.65 1.65 0 0 0-.704-.144 1.6 1.6 0 0 0-.635.126c-.191.09-.362.22-.5.38-.147.16-.263.345-.34.548a2.1 2.1 0 0 0 0 1.415c.076.205.192.393.34.553.143.153.316.275.509.357a1.68 1.68 0 0 0 1.374-.043q.33-.156.6-.405l.734.84c-.244.284-.55.506-.895.65-.36.147-.746.221-1.135.217-.402.006-.8-.068-1.174-.218a2.6 2.6 0 0 1-1.478-1.52 3.26 3.26 0 0 1 0-2.273 2.6 2.6 0 0 1 1.465-1.507 3 3 0 0 1 1.187-.222zm8.108 3.275c.01.384-.064.764-.218 1.115-.13.293-.323.553-.565.762-.236.199-.51.347-.804.436a3.17 3.17 0 0 1-1.861 0 2.3 2.3 0 0 1-.809-.436 2.1 2.1 0 0 1-.565-.762 2.7 2.7 0 0 1-.213-1.115v-3.135h1.191v3.048q-.01.343.1.667c.06.164.157.313.283.435.123.116.272.201.435.248.34.103.703.103 1.043 0a1.07 1.07 0 0 0 .718-.683q.11-.325.104-.667v-3.048h1.191zm4.326-3.274a3 3 0 0 1 .49.039q.225.036.436.117l-.283 1.176a1.7 1.7 0 0 0-.435-.148 2.3 2.3 0 0 0-.465-.052 1.4 1.4 0 0 0-.522.096 1.1 1.1 0 0 0-.408.283 1.3 1.3 0 0 0-.266.461 1.9 1.9 0 0 0-.095.619v2.992H29.18v-5.444h1.174v.614c.167-.25.4-.45.674-.575a2.2 2.2 0 0 1 .904-.183zm3.978 0a2.6 2.6 0 0 1 1.039.208c.308.134.584.333.808.584.24.262.426.568.548.902.131.373.196.767.191 1.162v.445h-4.06c.029.221.1.436.209.631.093.168.219.316.369.436.144.112.308.196.483.248.18.053.368.08.556.078.28-.003.556-.054.818-.152.272-.103.527-.25.752-.436l.59.845c-.306.27-.666.473-1.056.597a4 4 0 0 1-1.178.17 3 3 0 0 1-1.122-.205 2.55 2.55 0 0 1-1.443-1.48 3.2 3.2 0 0 1-.204-1.177c-.004-.396.063-.79.2-1.162a2.7 2.7 0 0 1 .548-.906c.245-.255.541-.454.87-.584.341-.14.708-.21 1.077-.209zm-.022 1.058a1.5 1.5 0 0 0-.565.096 1.2 1.2 0 0 0-.435.274q-.184.192-.291.435a2 2 0 0 0-.161.54h2.826a1.7 1.7 0 0 0-.435-.988 1.26 1.26 0 0 0-.943-.362zm7.7-3.593q.517 0 1.021.113.48.11.918.331.42.213.77.527c.226.202.42.437.578.697l-1.07.714a2.61 2.61 0 0 0-2.24-1.145 3 3 0 0 0-1.12.209 2.6 2.6 0 0 0-.87.592 2.7 2.7 0 0 0-.587.915 3.35 3.35 0 0 0 0 2.351c.132.341.332.652.587.915.246.254.542.456.87.592.356.142.737.213 1.12.21a2.6 2.6 0 0 0 2.214-1.142l1.043.767q-.256.375-.6.67a3.7 3.7 0 0 1-.739.523q-.429.214-.895.322a4.65 4.65 0 0 1-2.679-.2 3.84 3.84 0 0 1-2.173-2.178 4.58 4.58 0 0 1 0-3.292 3.84 3.84 0 0 1 2.173-2.178 4.4 4.4 0 0 1 1.679-.313m7 2.517a3 3 0 0 1 1.164.218c.345.138.66.342.927.6.262.259.47.567.613.907a3.03 3.03 0 0 1 0 2.273 2.76 2.76 0 0 1-1.54 1.507c-.75.29-1.58.29-2.33 0a2.8 2.8 0 0 1-.926-.601 2.8 2.8 0 0 1-.626-.889 3.03 3.03 0 0 1 0-2.273 2.8 2.8 0 0 1 .609-.906c.266-.26.58-.464.926-.6.377-.153.78-.229 1.187-.223zm0 1.12c-.231-.003-.46.04-.675.126a1.6 1.6 0 0 0-.895.905c-.174.456-.174.96 0 1.416a1.6 1.6 0 0 0 .896.906c.433.17.914.17 1.347 0 .41-.162.738-.484.904-.893.174-.456.174-.96 0-1.415a1.63 1.63 0 0 0-.904-.906 1.8 1.8 0 0 0-.67-.127zm6.49-1.12a2.06 2.06 0 0 1 1.709.801v-3.396h1.187v8.191h-1.187v-.653c-.19.242-.43.44-.704.58a2.2 2.2 0 0 1-1.005.217 2.645 2.645 0 0 1-2.504-1.725 3.26 3.26 0 0 1 0-2.3c.131-.336.328-.644.578-.905a2.65 2.65 0 0 1 1.926-.806zm.144 1.12a1.6 1.6 0 0 0-.687.139 1.54 1.54 0 0 0-.835.927 2.07 2.07 0 0 0 0 1.35c.07.204.18.392.322.553.143.16.318.287.513.375.434.18.922.18 1.356 0a1.6 1.6 0 0 0 .518-.366c.141-.15.253-.326.33-.518a2.07 2.07 0 0 0 0-1.385 1.7 1.7 0 0 0-.335-.549 1.6 1.6 0 0 0-.517-.366 1.6 1.6 0 0 0-.665-.148zm6.695-1.12c.357-.003.711.068 1.04.21.308.133.584.332.808.583.231.264.41.57.526.901.131.374.196.767.191 1.163v.444h-4.012c.028.222.099.437.208.632q.143.253.37.435.218.17.482.248.273.08.557.079c.28-.002.556-.054.817-.153.273-.102.527-.25.752-.435l.592.845c-.308.27-.667.473-1.057.596-.382.115-.78.173-1.178.17a3 3 0 0 1-1.122-.204 2.55 2.55 0 0 1-1.443-1.481 3.2 3.2 0 0 1-.205-1.176 3.3 3.3 0 0 1 .2-1.163c.123-.336.313-.644.557-.906a2.5 2.5 0 0 1 .87-.583 2.8 2.8 0 0 1 1.047-.192zm3.135 5.583V25h.109v-.057h-.283V25h.122v.274zm.543 0v-.33h-.087l-.1.226-.1-.227h-.087v.331h.061v-.248l.092.213h.06l.092-.213v.248zm-3.7-4.525a1.5 1.5 0 0 0-.565.096c-.162.06-.31.153-.434.274a1.5 1.5 0 0 0-.292.436 2 2 0 0 0-.16.54h2.817a1.7 1.7 0 0 0-.435-1.002 1.26 1.26 0 0 0-.93-.33zM12.797 14.056h-1.33V7.27l-2.405 5.97h-1.4L5.266 7.336v6.72h-1.34V5.812h2.04l2.396 5.892 2.39-5.892h2.04zm7 0h-1.231v-.675c-.197.25-.446.455-.73.6a2.25 2.25 0 0 1-1.04.223 2.74 2.74 0 0 1-2-.836 2.9 2.9 0 0 1-.6-.94 3.38 3.38 0 0 1 0-2.387c.137-.35.34-.67.6-.94a2.74 2.74 0 0 1 2-.837c.36-.01.716.068 1.04.226.284.146.533.353.73.605v-.679h1.23zm-2.857-4.63a1.6 1.6 0 0 0-1.243.532 1.7 1.7 0 0 0-.335.575 2.15 2.15 0 0 0 0 1.402c.074.212.19.407.339.575.148.165.328.297.53.387.45.19.958.19 1.409 0a1.6 1.6 0 0 0 .534-.379c.152-.165.27-.36.348-.57a2.15 2.15 0 0 0 0-1.437 1.7 1.7 0 0 0-.348-.57 1.62 1.62 0 0 0-1.234-.515m8.495.401a3.4 3.4 0 0 0-.752-.318 4 4 0 0 0-.487-.117 3 3 0 0 0-.522-.048 1.4 1.4 0 0 0-.787.187.56.56 0 0 0-.278.488.4.4 0 0 0 .074.248.56.56 0 0 0 .196.165q.14.072.295.105.17.04.366.07l.582.087c.518.054 1.014.24 1.44.54.357.265.56.69.543 1.136.002.26-.058.515-.174.745a1.7 1.7 0 0 1-.5.562 2.4 2.4 0 0 1-.805.38c-.354.093-.72.14-1.087.134a6 6 0 0 1-.504-.026 4.2 4.2 0 0 1-1.274-.327 3 3 0 0 1-.64-.37l.57-.923q.157.12.33.222.195.111.406.183.244.084.5.126.308.051.62.048c.33.018.66-.046.958-.187a.56.56 0 0 0 .326-.5.47.47 0 0 0-.235-.398 1.85 1.85 0 0 0-.74-.226l-.586-.078a2.7 2.7 0 0 1-1.426-.55 1.39 1.39 0 0 1-.491-1.105 1.7 1.7 0 0 1 .165-.758c.107-.225.267-.42.465-.57.22-.163.467-.285.73-.358a3.4 3.4 0 0 1 .97-.126c.422-.002.843.05 1.252.157.364.09.712.237 1.03.435zm5.835-.296h-2.174v2.456q0 .25.082.488.06.183.192.327a.7.7 0 0 0 .282.187q.17.06.352.06c.2 0 .4-.04.587-.112q.287-.108.548-.27l.487.984q-.36.24-.765.396c-.308.113-.633.17-.96.166a2 2 0 0 1-1.488-.536 2.26 2.26 0 0 1-.54-1.664V9.535h-1.116V8.416h1.117V6.71h1.235v1.707h2.174zm3.782-1.267a2.7 2.7 0 0 1 1.078.213c.32.14.607.345.84.605.24.274.426.592.547.937.135.387.2.796.196 1.206v.457h-4.187c.03.23.104.452.217.654.197.334.512.58.883.692q.284.084.578.083c.297 0 .592-.053.87-.157.28-.102.544-.249.778-.436l.613.871c-.32.28-.692.49-1.096.62-.396.12-.807.18-1.221.177a3.1 3.1 0 0 1-1.187-.19 2.64 2.64 0 0 1-1.51-1.538 3.4 3.4 0 0 1-.212-1.22c-.005-.41.064-.82.205-1.206.127-.35.324-.67.578-.94.244-.26.54-.467.87-.606a2.9 2.9 0 0 1 1.16-.218zM35.03 9.36a1.6 1.6 0 0 0-.587.1q-.246.1-.434.288a1.5 1.5 0 0 0-.305.435c-.086.18-.146.373-.178.57h2.922a1.74 1.74 0 0 0-.47-1.023 1.3 1.3 0 0 0-.948-.37m6.957-1.097q.255-.002.508.04.224.039.435.121l-.296 1.22a1.7 1.7 0 0 0-.434-.153 2.4 2.4 0 0 0-.483-.052 1.4 1.4 0 0 0-.54.1 1.14 1.14 0 0 0-.434.296 1.4 1.4 0 0 0-.278.48c-.07.205-.104.422-.1.64v3.104h-1.23V8.4h1.217v.636c.172-.253.41-.455.687-.584.295-.127.614-.19.935-.183zm4.204 0a3.1 3.1 0 0 1 1.182.226c.358.147.674.38.922.675l-.787.84a2.4 2.4 0 0 0-.622-.435 1.7 1.7 0 0 0-.73-.152 1.6 1.6 0 0 0-1.535 1.071c-.17.474-.17.993 0 1.468.078.21.196.405.348.57.15.16.33.285.53.37.208.09.432.133.657.131.26.002.52-.054.757-.165.228-.112.438-.26.62-.436l.758.85a2.5 2.5 0 0 1-.93.674 3 3 0 0 1-1.18.227 3.2 3.2 0 0 1-1.216-.227 2.72 2.72 0 0 1-1.535-1.563 3.38 3.38 0 0 1 0-2.356 2.72 2.72 0 0 1 1.535-1.564c.387-.146.8-.214 1.213-.2zm8.639 5.792H53.6v-.675a2.2 2.2 0 0 1-.731.6 2.25 2.25 0 0 1-1.04.223 2.74 2.74 0 0 1-2-.836 2.9 2.9 0 0 1-.6-.94 3.38 3.38 0 0 1 0-2.387c.137-.35.34-.67.6-.94a2.74 2.74 0 0 1 2-.837c.36-.01.717.068 1.04.226a2.2 2.2 0 0 1 .73.605v-.679h1.23zm-2.852-4.63a1.7 1.7 0 0 0-.714.144 1.6 1.6 0 0 0-.53.388 1.7 1.7 0 0 0-.335.575 2.15 2.15 0 0 0 0 1.402c.074.211.188.406.335.575.148.165.329.297.53.387.45.19.958.19 1.41 0 .2-.088.383-.217.534-.379.152-.165.27-.359.348-.57a2.15 2.15 0 0 0 0-1.437 1.7 1.7 0 0 0-.348-.57 1.62 1.62 0 0 0-1.226-.515zm7.517-1.158q.255-.002.508.04.224.038.435.121l-.296 1.22a1.7 1.7 0 0 0-.434-.153 2.4 2.4 0 0 0-.483-.052 1.4 1.4 0 0 0-.54.1 1.14 1.14 0 0 0-.434.296 1.4 1.4 0 0 0-.278.48c-.07.206-.104.423-.1.64v3.105h-1.23v-5.66h1.23v.635c.173-.255.412-.459.69-.588.296-.127.615-.19.936-.183zm4.034 0c.36-.01.716.068 1.04.226.284.147.533.353.73.606V5.577h1.23v8.48h-1.23v-.676c-.196.25-.445.455-.73.6a2.25 2.25 0 0 1-1.04.223 2.74 2.74 0 0 1-2-.836 2.9 2.9 0 0 1-.612-.94 3.38 3.38 0 0 1 0-2.387c.137-.35.34-.67.6-.94a2.74 2.74 0 0 1 2-.837zm4.435 5.27a.36.36 0 0 1 .361.425.35.35 0 0 1-.1.184.37.37 0 0 1-.601-.109.355.355 0 0 1 .196-.47.4.4 0 0 1 .148-.03zm0 .64a.27.27 0 0 0 .195-.083.283.283 0 0 0-.086-.457.3.3 0 0 0-.11 0 .3.3 0 0 0-.108 0 .28.28 0 0 0-.087.435.3.3 0 0 0 .087.061q.052.031.113.04zm0-.436a.15.15 0 0 1 .1.03.1.1 0 0 1 .035.08.1.1 0 0 1-.026.07.13.13 0 0 1-.08.034l.11.126h-.087l-.1-.126h-.03v.126h-.07v-.335zm-.083.061v.087h.083a.1.1 0 0 0 .043 0 .04.04 0 0 0 0-.035.04.04 0 0 0 0-.034.1.1 0 0 0-.043 0zm-4.226-4.355a1.6 1.6 0 0 0-1.243.532 1.7 1.7 0 0 0-.335.574 2.15 2.15 0 0 0 0 1.403c.074.211.188.406.335.575.148.164.329.296.53.387a1.83 1.83 0 0 0 1.409 0c.202-.088.384-.217.535-.379.167-.173.296-.379.378-.605a2.15 2.15 0 0 0 0-1.437 1.7 1.7 0 0 0-.348-.57 1.6 1.6 0 0 0-.535-.38 1.7 1.7 0 0 0-.7-.122z"/></symbol><use xlink:href="#sprite-payment_mc" width="72" height="32" y="521"/><view id="sprite-payment_mc-view" viewBox="0 521 72 32"/><symbol fill="none" id="sprite-payment_visa" viewBox="0 0 72 32"><path fill="#fff" fill-rule="evenodd" d="m30.463 16.769-2.784 7.499-.296-1.524c-.694-1.868-2.195-3.828-3.943-4.623l2.547 9.63 3.01-.001 4.477-10.981zm2.387 10.993 1.779-11.004h2.844l-1.78 11.004zM46.009 17.03a7 7 0 0 0-2.55-.464c-2.812 0-4.79 1.494-4.806 3.631-.018 1.583 1.413 2.466 2.49 2.992 1.11.538 1.48.883 1.477 1.364-.01.738-.888 1.074-1.704 1.074-1.137 0-1.743-.166-2.675-.575l-.37-.176-.397 2.463c.665.306 1.894.572 3.17.586 2.986 0 4.929-1.477 4.952-3.758.012-1.256-.748-2.206-2.39-2.99-.992-.51-1.605-.849-1.596-1.366 0-.456.514-.945 1.63-.945a5 5 0 0 1 2.128.423l.254.126zm7.294-.26h-2.197c-.681 0-1.192.194-1.492.913l-4.222 10.083h2.987s.488-1.357.599-1.655l3.64.007c.089.383.347 1.648.347 1.648h2.64zm-3.507 7.09c.236-.631 1.133-3.075 1.133-3.075-.018.03.233-.637.378-1.049l.19.949.66 3.175z" clip-rule="evenodd"/><path fill="#fff" fill-rule="evenodd" d="M25.097 16.763H20.51l-.027.19c3.566.91 5.92 3.148 6.9 5.794l-.997-5.057c-.172-.696-.67-.902-1.29-.927M11.906 14.104h-1.814L8 4.683l2.004-.335 1.432 7.373 3.646-7.275h1.925zm9.432-3.08h-4.325c-.118 1.31.491 1.882 1.523 1.882.866 0 1.627-.321 2.445-.837l-.006 1.31a5.2 5.2 0 0 1-2.82.823c-1.883 0-3.127-1.073-2.753-3.499.337-2.188 1.852-3.511 3.61-3.511 2.023 0 2.696 1.519 2.402 3.428-.021.14-.061.307-.076.404m-2.546-2.676c-.67 0-1.295.53-1.59 1.631h2.678c.05-1.046-.278-1.63-1.087-1.63m5.365 1.854-.595 3.86h-1.674l1.037-6.731h1.423l.001 1.352c.567-.78 1.337-1.436 2.392-1.491l.01 1.658a3.72 3.72 0 0 0-2.594 1.352m2.572 3.86 1.037-6.731h1.674l-1.037 6.732zm2.062-7.86c-.558 0-.944-.39-.858-.948a1.17 1.17 0 0 1 1.154-.975c.545 0 .929.404.84.975-.085.558-.592.948-1.136.948m5.286-.711c-.572 0-.918.25-1.01.85l-.153.99h1.284l-.001 1.365h-1.493l-.827 5.367h-1.66l.827-5.367h-.977l.21-1.365h.977l.178-1.157c.23-1.491 1.265-2.049 2.646-2.049.293 0 .512.028.675.056l.013 1.366a4 4 0 0 0-.689-.056m.017 8.572 1.037-6.732h1.674l-1.037 6.732zm2.062-7.861c-.558 0-.944-.39-.858-.948a1.17 1.17 0 0 1 1.154-.975c.545 0 .929.404.84.975-.085.558-.592.948-1.136.948m7.14 4.822h-4.325c-.118 1.31.491 1.882 1.524 1.882.865 0 1.626-.321 2.445-.837l-.007 1.31a5.2 5.2 0 0 1-2.82.823c-1.883 0-3.126-1.073-2.753-3.499.337-2.188 1.853-3.511 3.61-3.511 2.024 0 2.696 1.519 2.402 3.428-.021.14-.061.307-.076.404m-2.545-2.676c-.67 0-1.296.53-1.59 1.631h2.678c.049-1.046-.28-1.63-1.088-1.63m7.504 5.714.004-.933c-.562.571-1.295 1.073-2.23 1.073-1.41 0-2.378-1.045-2.028-3.317.386-2.509 1.94-3.624 3.502-3.624a4.4 4.4 0 0 1 1.524.25l.5-3.246L51.243 4l-1.55 10.063zm.56-5.17c-.389-.196-.695-.293-1.267-.293-.879 0-1.63.71-1.858 2.188-.201 1.31.262 1.923 1.002 1.923.613 0 1.143-.362 1.676-.92zm6.005 5.234a6 6 0 0 1-2.04-.338l1.102-7.147 1.299-.2-.477 3.092c.38-.337.907-.675 1.552-.675 1.078 0 1.8.802 1.536 2.512-.29 1.88-1.451 2.756-2.972 2.756m.937-4.15c-.423 0-.847.286-1.223.666l-.356 2.312c.25.095.423.137.782.137.803 0 1.364-.485 1.543-1.647.152-.982-.175-1.467-.746-1.467m5.024 4.361c-.648 1.256-1.29 1.647-2.272 1.647-.222 0-.346-.021-.457-.053l-.008-1.045c.163.042.337.074.58.074.37 0 .692-.169.908-.539l.168-.337-1.075-5.026 1.347-.168.624 3.631 1.69-3.557h1.257z" clip-rule="evenodd"/></symbol><use xlink:href="#sprite-payment_visa" width="72" height="32" y="553"/><view id="sprite-payment_visa-view" viewBox="0 553 72 32"/><symbol fill="none" id="sprite-phone" viewBox="0 0 24 24"><g clip-path="url(#a)"><path fill="#fff" d="M12 0a12 12 0 1 0 0 24 12 12 0 0 0 0-24m.514 7.371a4.12 4.12 0 0 1 4.115 4.115H15.6A3.09 3.09 0 0 0 12.514 8.4zM15.846 19.2c-.03 0-3.12-.053-7.092-3.954C4.853 11.276 4.8 8.185 4.8 8.154 4.8 7.769 7.2 4.8 7.73 4.8c.184 0 .328.125.484.312.378.45 2.048 3.085 1.97 3.524-.036.206-.211.363-.714.785q-.371.291-.692.64c.102.423.254.833.452 1.22a7.55 7.55 0 0 0 3.49 3.489q.584.298 1.22.452.348-.32.64-.692c.422-.503.58-.678.786-.715.439-.08 3.074 1.593 3.524 1.97.187.16.312.3.312.485-.002.53-2.97 2.93-3.356 2.93m2.325-7.714a5.663 5.663 0 0 0-5.657-5.657V4.8a6.694 6.694 0 0 1 6.686 6.686z"/></g><defs><clipPath id="a"><path fill="#fff" d="M0 0h24v24H0z"/></clipPath></defs></symbol><use xlink:href="#sprite-phone" width="24" height="24" y="585"/><view id="sprite-phone-view" viewBox="0 585 24 24"/><symbol fill="none" id="sprite-plus" viewBox="0 0 24 24"><g clip-path="url(#a)"><path stroke="#000" stroke-width="1.5" d="M.383 11.907h11.75m0 0h11.25m-11.25 0V.657m0 11.25v11.75"/></g><defs><clipPath id="a"><path fill="#fff" d="M0 0h24v24H0z"/></clipPath></defs></symbol><use xlink:href="#sprite-plus" width="24" height="24" y="609"/><view id="sprite-plus-view" viewBox="0 609 24 24"/><symbol fill="none" id="sprite-search" viewBox="0 0 24 24"><g clip-path="url(#a)"><path stroke="currentColor" stroke-miterlimit="10" stroke-width="1.5" d="m23.063 23.337-6.4-6.4m-16-6.627a9.372 9.372 0 1 0 18.745 0 9.372 9.372 0 1 0-18.745 0Z"/></g><defs><clipPath id="a"><path fill="#fff" d="M0 0h24v24H0z"/></clipPath></defs></symbol><use xlink:href="#sprite-search" width="24" height="24" y="633"/><view id="sprite-search-view" viewBox="0 633 24 24"/><symbol fill="none" id="sprite-subcategory_marker" viewBox="0 0 18 18"><path fill="#F59B00" d="M12.337 8.901 10.813 6 6 8.481l1.524 2.93z"/></symbol><use xlink:href="#sprite-subcategory_marker" width="18" height="18" y="657"/><view id="sprite-subcategory_marker-view" viewBox="0 657 18 18"/><symbol fill="none" id="sprite-subcategory_picture_marker" viewBox="0 0 18 18"><path fill="#F59B00" d="M12.337 8.901 10.813 6 6 8.481l1.524 2.93z"/></symbol><use xlink:href="#sprite-subcategory_picture_marker" width="18" height="18" y="675"/><view id="sprite-subcategory_picture_marker-view" viewBox="0 675 18 18"/><symbol fill="none" id="sprite-whatsapp" viewBox="0 0 24 24"><path fill="#fff" d="M12.003 0h-.006C5.381 0 0 5.382 0 12c0 2.625.846 5.058 2.285 7.034L.789 23.492l4.613-1.475A11.9 11.9 0 0 0 12.003 24C18.619 24 24 18.616 24 12S18.62 0 12.003 0m6.982 16.946c-.289.817-1.438 1.495-2.354 1.693-.628.134-1.447.24-4.203-.903-3.527-1.461-5.798-5.045-5.975-5.277-.17-.232-1.425-1.897-1.425-3.62 0-1.722.875-2.56 1.227-2.92.29-.295.768-.43 1.227-.43.148 0 .282.007.402.013.352.015.53.036.762.593.29.697.994 2.419 1.079 2.596s.17.417.05.65c-.112.24-.211.346-.388.55s-.345.36-.522.579c-.162.19-.345.394-.141.747.204.345.909 1.495 1.947 2.42 1.34 1.192 2.426 1.573 2.814 1.735.29.12.635.091.846-.133.269-.29.6-.77.938-1.243.24-.338.543-.38.86-.26.324.112 2.039.96 2.391 1.135.353.177.585.261.671.41.084.148.084.845-.206 1.664"/></symbol><use xlink:href="#sprite-whatsapp" width="24" height="24" y="693"/><view id="sprite-whatsapp-view" viewBox="0 693 24 24"/><symbol fill="none" id="sprite-x" viewBox="0 0 24 24"><path fill="#000" d="M12 0C5.409 0 0 5.409 0 12s5.409 12 12 12 12-5.409 12-12S18.591 0 12 0m5.966 15.978-1.988 1.988L12 13.988l-3.978 3.978-1.988-1.988L10.012 12 6.034 8.022l1.988-1.988L12 10.012l3.978-3.978 1.988 1.988L13.988 12z"/></symbol><use xlink:href="#sprite-x" width="24" height="24" y="717"/><view id="sprite-x-view" viewBox="0 717 24 24"/></svg>