<svg width="24" height="24" viewBox="0 0 24 24" fill="none" xmlns="http://www.w3.org/2000/svg">
<path d="M7.77553 18C7.83313 18 7.89103 17.9781 7.93513 17.934L15.3573 10.5123L15.3573 16.9101C15.3573 17.0013 15.4122 17.0835 15.4965 17.1186C15.5808 17.1534 15.6777 17.1342 15.7422 17.0697L17.934 14.8773C17.9763 14.835 18 14.7777 18 14.7177V6.2256C18 6.1011 17.8989 6 17.7744 6L9.28211 6C9.22241 6 9.16481 6.0237 9.12251 6.066L6.93044 8.2578C6.86594 8.3223 6.84674 8.4192 6.88154 8.5035C6.91634 8.5878 6.99884 8.6427 7.09004 8.6427L13.4878 8.6427L6.06615 16.0653C5.97795 16.1535 5.97795 16.2963 6.06615 16.3842L7.61593 17.934C7.66003 17.9781 7.71763 18 7.77553 18Z" fill="black"/>
</svg>
