<svg width="24" height="24" viewBox="0 0 24 24" fill="none" xmlns="http://www.w3.org/2000/svg">
<path d="M10.9755 8.06618C10.9348 8.10691 10.9093 8.16334 10.9093 8.22571L10.9089 15.7219L6.38502 11.198C6.32053 11.1335 6.22358 11.1142 6.13916 11.149C6.05494 11.184 6 11.2661 6 11.3573L6.00044 14.4574C6.00044 14.5172 6.0242 14.5745 6.06663 14.6169L12.0714 20.6217C12.1595 20.7098 12.3025 20.7098 12.3905 20.6217L18.3955 14.6168C18.4377 14.5746 18.4616 14.5171 18.4616 14.4573L18.4618 11.3574C18.4618 11.2662 18.4069 11.1841 18.3227 11.1491C18.2385 11.1141 18.1413 11.1336 18.0768 11.1981L13.5529 15.7219L13.5522 8.22551C13.5522 8.10078 13.4513 7.9998 13.3267 8.00001L11.135 8C11.0726 8 11.0164 8.02524 10.9755 8.06618Z" fill="black"/>
</svg>
