<svg width="24" height="24" viewBox="0 0 24 24" fill="none" xmlns="http://www.w3.org/2000/svg">
<g clip-path="url(#clip0_11779_193)">
<path fill-rule="evenodd" clip-rule="evenodd" d="M12 24C18.6274 24 24 18.6274 24 12C24 5.37258 18.6274 0 12 0C5.37258 0 0 5.37258 0 12C0 18.6274 5.37258 24 12 24ZM13.7799 5L15.6987 5.00291C15.8652 5.0032 16 5.13094 16 5.28838V7.4256C16 7.58319 15.865 7.71107 15.6984 7.71107L14.4058 7.7115C13.5147 7.7115 13.3517 8.04008 13.3517 8.68734V10.034H15.6082C15.6883 10.034 15.7652 10.0641 15.8217 10.1177C15.8782 10.1713 15.9101 10.2439 15.9101 10.3196L15.9092 12.6213C15.9092 12.779 15.7742 12.9067 15.6075 12.9067H13.3517V18.7145C13.3517 18.8721 13.2166 19 13.0499 19H10.5327C10.366 19 10.231 18.8723 10.231 18.7145V12.9067H8.30172C8.13516 12.9067 8 12.779 8 12.6213V10.3196C8 10.1619 8.135 10.034 8.30172 10.034H10.231V8.44542C10.231 6.35233 11.6242 5 13.7799 5Z" fill="black"/>
</g>
<defs>
<clipPath id="clip0_11779_193">
<rect width="24" height="24" fill="white"/>
</clipPath>
</defs>
</svg>
