<svg width="24" height="24" viewBox="0 0 24 24" fill="none" xmlns="http://www.w3.org/2000/svg">
<g clip-path="url(#clip0_10010_3570)">
<path d="M14.475 12C14.475 10.6388 13.3612 9.525 12 9.525C10.6388 9.525 9.525 10.6388 9.525 12C9.525 13.3612 10.6388 14.475 12 14.475C13.3612 14.475 14.475 13.3612 14.475 12Z" fill="black"/>
<path d="M15.3 7.4625C14.8463 7.4625 14.475 7.83375 14.475 8.2875C14.475 8.74125 14.8463 9.1125 15.3 9.1125C15.7538 9.1125 16.125 8.74125 16.125 8.2875C16.125 7.83375 15.7538 7.4625 15.3 7.4625Z" fill="black"/>
<path fill-rule="evenodd" clip-rule="evenodd" d="M12 24C18.6274 24 24 18.6274 24 12C24 5.37258 18.6274 0 12 0C5.37258 0 0 5.37258 0 12C0 18.6274 5.37258 24 12 24ZM5.4 9.1125C5.4 7.05 7.05 5.4 9.1125 5.4H14.8875C16.95 5.4 18.6 7.05 18.6 9.1125V14.8875C18.6 16.95 16.95 18.6 14.8875 18.6H9.1125C7.05 18.6 5.4 16.95 5.4 14.8875V9.1125Z" fill="black"/>
</g>
<defs>
<clipPath id="clip0_10010_3570">
<rect width="24" height="24" fill="white"/>
</clipPath>
</defs>
</svg>
